<?xml version="1.0" encoding="UTF-8" standalone="no"?><svg id="Layer_1" data-name="Layer 1" xmlns="http://www.w3.org/2000/svg" viewBox="0 0 337.8 266.87"><defs><style>.cls-1{fill:#79eea2;}.cls-2{fill:#231f20;}.cls-3{fill:none;stroke:#221f20;stroke-miterlimit:10;stroke-width:14px;}.cls-4{fill:#252626;}</style></defs><circle class="cls-1" cx="127.03" cy="102.06" r="29.1"/><circle class="cls-1" cx="226.36" cy="52.28" r="29.1"/><path class="cls-2" d="M90.89,104.91a27.77,27.77,0,0,1-11-.77A18.56,18.56,0,0,1,72,99.52a20.52,20.52,0,0,1-4.84-7.86,31.45,31.45,0,0,1-1.65-10.51V45.83L80,34V45.72H90.89V58.59H80V81.26q0,5.94,2.7,8.36c1.79,1.62,4.52,2.31,8.19,2.09Z"/><path class="cls-2" d="M168,23.18h14.52V81.26c0,4,.91,6.84,2.72,8.42s4.54,2.25,8.17,2v13.2a27.77,27.77,0,0,1-11-.77,18.87,18.87,0,0,1-7.92-4.56,20.1,20.1,0,0,1-4.84-7.81A31.45,31.45,0,0,1,168,81.26Z"/><path class="cls-2" d="M226.3,45.72A27.55,27.55,0,0,1,237.41,48a28.3,28.3,0,0,1,9.08,6.27,29.93,29.93,0,0,1,6.16,9.46,30.65,30.65,0,0,1,2.25,11.82,30.22,30.22,0,0,1-2.25,11.77,29.32,29.32,0,0,1-6.16,9.35,28.8,28.8,0,0,1-9.08,6.22,28.55,28.55,0,0,1-22.22,0,28.1,28.1,0,0,1-9-6.22,29.5,29.5,0,0,1-6.1-9.35,30,30,0,0,1-2.26-11.77,30.47,30.47,0,0,1,2.26-11.82,30.13,30.13,0,0,1,6.1-9.46,27.63,27.63,0,0,1,20.13-8.53Zm.06,46.09a13,13,0,0,0,5.41-1.15,13.53,13.53,0,0,0,4.47-3.3,15.81,15.81,0,0,0,3-5.12,19,19,0,0,0,1.1-6.6,19.93,19.93,0,0,0-1.1-6.71,16.28,16.28,0,0,0-3-5.28,14,14,0,0,0-4.47-3.41A12.55,12.55,0,0,0,226.36,59a12.88,12.88,0,0,0-5.47,1.21,13.19,13.19,0,0,0-4.47,3.41,16.75,16.75,0,0,0-3,5.28,19.93,19.93,0,0,0-1.1,6.71,19,19,0,0,0,1.1,6.6,16.26,16.26,0,0,0,3,5.12,12.76,12.76,0,0,0,4.47,3.3A13.29,13.29,0,0,0,226.36,91.81Z"/><path class="cls-2" d="M156.12,105.12H142.37V97.8a20.71,20.71,0,0,1-7.64,5.38A25.1,25.1,0,0,1,125.1,105a24.81,24.81,0,0,1-10.56-2.3,27.09,27.09,0,0,1-8.63-6.32,30.55,30.55,0,0,1-8-20.8A31.32,31.32,0,0,1,100.08,64a28.19,28.19,0,0,1,15.18-15.81A29.24,29.24,0,0,1,148,54.56,28.61,28.61,0,0,1,154,64a31.32,31.32,0,0,1,2.14,11.59ZM141.6,75.59a17.32,17.32,0,0,0-1.16-6.36,16.47,16.47,0,0,0-3.15-5.15,15,15,0,0,0-4.63-3.46A13,13,0,0,0,127,59.36a13.54,13.54,0,0,0-5.64,1.21,14,14,0,0,0-4.63,3.4,16.47,16.47,0,0,0-3.15,5.15,17.64,17.64,0,0,0-1.16,6.47,16.89,16.89,0,0,0,1.16,6.3,15.83,15.83,0,0,0,3.15,5,14.46,14.46,0,0,0,4.63,3.35,13.54,13.54,0,0,0,5.64,1.2,13,13,0,0,0,5.63-1.26,15.08,15.08,0,0,0,4.63-3.4,15.83,15.83,0,0,0,3.15-5A16.58,16.58,0,0,0,141.6,75.59Z"/><path class="cls-3" d="M103.28,128.51h0a75.94,75.94,0,0,0,75.94,75.94h69V140.29h19.47V112.8"/><path class="cls-3" d="M143.36,158.15a59.58,59.58,0,0,0,67.81-22.06"/><path class="cls-4" d="M270.2,104.31h-5.07c.29-2.29.55-4.43.88-7.09l-5.66,4.36-2.62-4.43,6.74-2.77-6.72-2.81,2.58-4.46L266,91.53c-.32-2.52-.6-4.73-.89-7.07h5.06l-.89,7.07L275,87.12l2.6,4.44-6.69,2.8,6.67,2.78L275,101.62l-5.68-4.45C269.63,99.73,269.9,101.88,270.2,104.31Z"/></svg>