<?xml version="1.0" encoding="UTF-8" standalone="no"?><svg id="Layer_1" data-name="Layer 1" xmlns="http://www.w3.org/2000/svg" viewBox="0 0 337.8 182.13"><defs><style>.cls-1{fill:#79eea2;}.cls-2{fill:#252626;}</style></defs><circle class="cls-1" cx="125.95" cy="122.63" r="28.59"/><circle class="cls-1" cx="223.55" cy="73.72" r="28.59"/><path class="cls-2" d="M90.45,125.44a27.4,27.4,0,0,1-10.81-.76,18.17,18.17,0,0,1-7.78-4.54,20.24,20.24,0,0,1-4.76-7.73,30.87,30.87,0,0,1-1.62-10.32V67.39L79.75,55.72V67.28h10.7V79.92H79.75V102.2q0,5.83,2.65,8.21c1.76,1.59,4.45,2.28,8,2.06Z"/><path class="cls-2" d="M166.22,45.13h14.26V102.2q0,5.94,2.68,8.27c1.78,1.55,4.46,2.22,8,2v13a27.41,27.41,0,0,1-10.81-.76,18.55,18.55,0,0,1-7.78-4.48,19.8,19.8,0,0,1-4.75-7.68,30.87,30.87,0,0,1-1.62-10.32Z"/><path class="cls-2" d="M223.5,67.28a27.15,27.15,0,0,1,10.92,2.21,28,28,0,0,1,8.91,6.16,29.34,29.34,0,0,1,6.06,9.3,30.21,30.21,0,0,1,2.21,11.62,29.76,29.76,0,0,1-2.21,11.56,28.62,28.62,0,0,1-6.06,9.19,28.19,28.19,0,0,1-8.91,6.11,28.08,28.08,0,0,1-21.84,0,27.64,27.64,0,0,1-8.86-6.11,29.14,29.14,0,0,1-6-9.19,29.58,29.58,0,0,1-2.21-11.56,29.92,29.92,0,0,1,8.21-20.92,27.47,27.47,0,0,1,8.86-6.16A27.15,27.15,0,0,1,223.5,67.28Zm.05,45.29a12.62,12.62,0,0,0,5.32-1.14,13.33,13.33,0,0,0,4.39-3.24,15.38,15.38,0,0,0,3-5,18.5,18.5,0,0,0,1.09-6.48,19.53,19.53,0,0,0-1.09-6.6,15.79,15.79,0,0,0-3-5.18,13.53,13.53,0,0,0-4.39-3.35,12.08,12.08,0,0,0-5.32-1.19,12.45,12.45,0,0,0-5.37,1.19,12.83,12.83,0,0,0-4.39,3.35,16.41,16.41,0,0,0-2.93,5.18,19.28,19.28,0,0,0-1.09,6.6,18.28,18.28,0,0,0,1.09,6.48,16,16,0,0,0,2.93,5,12.65,12.65,0,0,0,4.39,3.24A13,13,0,0,0,223.55,112.57Z"/><path class="cls-2" d="M154.54,125.64H141v-7.19a20.33,20.33,0,0,1-7.51,5.29,24.63,24.63,0,0,1-9.46,1.8,24.26,24.26,0,0,1-10.37-2.27,27,27,0,0,1-8.49-6.2,29.94,29.94,0,0,1-7.83-20.45,30.84,30.84,0,0,1,2.1-11.38,28.43,28.43,0,0,1,53,0,30.84,30.84,0,0,1,2.1,11.38Zm-14.26-29a16.92,16.92,0,0,0-1.14-6.24,16.26,16.26,0,0,0-3.1-5.07,14.68,14.68,0,0,0-4.55-3.39A12.68,12.68,0,0,0,126,80.68a13.22,13.22,0,0,0-5.53,1.19,13.94,13.94,0,0,0-4.56,3.33,16.42,16.42,0,0,0-3.09,5.07,17.27,17.27,0,0,0-1.14,6.35,16.59,16.59,0,0,0,1.14,6.2,15.83,15.83,0,0,0,3.09,5,14.26,14.26,0,0,0,4.56,3.29,13.21,13.21,0,0,0,5.53,1.18,12.68,12.68,0,0,0,5.54-1.24,14.68,14.68,0,0,0,4.55-3.34,15.68,15.68,0,0,0,3.1-5A16.24,16.24,0,0,0,140.28,96.62Z"/><path class="cls-2" d="M266.63,125.64h-5c.28-2.25.54-4.34.86-7-2,1.57-3.72,2.86-5.57,4.28l-2.57-4.35,6.62-2.72-6.6-2.76,2.53-4.38,5.6,4.34c-.31-2.48-.59-4.65-.88-7h5c-.28,2.27-.56,4.45-.87,6.94l5.59-4.32,2.55,4.36-6.58,2.75,6.56,2.73-2.52,4.4-5.58-4.37C266.08,121.14,266.34,123.26,266.63,125.64Z"/></svg>